<svg width="416" height="3210" viewBox="0 0 416 3210" fill="none" xmlns="http://www.w3.org/2000/svg">
    <path d="M279.783 1991.95H160.202M160.256 2302.86L160.202 3169.5M160.532 40L160.345 1011.58C160.345 1077.59 213.917 1131.16 279.926 1131.16M279.922 1752.88L160.34 1752.88M160.263 2302.87C160.263 2236.86 213.835 2183.29 279.844 2183.29M40.714 1872.46C40.714 1806.45 94.2858 1752.88 160.295 1752.88M160.341 1991.95C94.3318 1991.95 40.76 1938.37 40.76 1872.37M375.401 2087.61C375.401 2140.47 332.591 2183.28 279.736 2183.28M279.73 1991.95C332.585 1991.95 375.395 2034.76 375.395 2087.61M279.974 1561.55H160.393M280.113 1322.48H160.532M40.905 1442.06C40.905 1376.05 94.4769 1322.48 160.486 1322.48M160.532 1561.55C94.5228 1561.55 40.951 1507.98 40.951 1441.97M375.673 1657.21C375.673 1710.07 332.863 1752.88 280.008 1752.88M279.922 1561.55C332.776 1561.55 375.586 1604.36 375.586 1657.21M375.586 1226.82C375.586 1279.67 332.776 1322.48 279.922 1322.48M279.835 1131.15C332.689 1131.15 375.499 1173.96 375.499 1226.82"
          stroke="url(#paint0_linear_217_2)" stroke-width="80" stroke-linecap="round" stroke-linejoin="round"/>
    <path d="M163.45 2074.05L177.2 2061.7C177.9 2061.07 178.6 2060.35 179.3 2059.55C180 2058.75 180.35 2057.82 180.35 2056.75C180.35 2055.55 179.917 2054.62 179.05 2053.95C178.183 2053.25 177.167 2052.9 176 2052.9C174.6 2052.9 173.5 2053.33 172.7 2054.2C171.933 2055.07 171.5 2056.13 171.4 2057.4L163.9 2056.85C164 2055.02 164.383 2053.43 165.05 2052.1C165.717 2050.73 166.6 2049.6 167.7 2048.7C168.8 2047.8 170.083 2047.13 171.55 2046.7C173.05 2046.23 174.667 2046 176.4 2046C178 2046 179.5 2046.23 180.9 2046.7C182.3 2047.13 183.517 2047.8 184.55 2048.7C185.583 2049.57 186.383 2050.67 186.95 2052C187.55 2053.33 187.85 2054.88 187.85 2056.65C187.85 2057.78 187.733 2058.82 187.5 2059.75C187.267 2060.65 186.933 2061.48 186.5 2062.25C186.1 2062.98 185.617 2063.67 185.05 2064.3C184.483 2064.93 183.867 2065.55 183.2 2066.15L172.45 2075.4H188.15V2082H163.45V2074.05ZM192.24 2064.3C192.24 2062.2 192.423 2060.07 192.79 2057.9C193.19 2055.73 193.873 2053.77 194.84 2052C195.84 2050.23 197.19 2048.8 198.89 2047.7C200.59 2046.57 202.757 2046 205.39 2046C208.023 2046 210.19 2046.57 211.89 2047.7C213.59 2048.8 214.923 2050.23 215.89 2052C216.89 2053.77 217.573 2055.73 217.94 2057.9C218.34 2060.07 218.54 2062.2 218.54 2064.3C218.54 2066.4 218.34 2068.53 217.94 2070.7C217.573 2072.87 216.89 2074.83 215.89 2076.6C214.923 2078.37 213.59 2079.82 211.89 2080.95C210.19 2082.05 208.023 2082.6 205.39 2082.6C202.757 2082.6 200.59 2082.05 198.89 2080.95C197.19 2079.82 195.84 2078.37 194.84 2076.6C193.873 2074.83 193.19 2072.87 192.79 2070.7C192.423 2068.53 192.24 2066.4 192.24 2064.3ZM199.74 2064.3C199.74 2065.23 199.773 2066.35 199.84 2067.65C199.94 2068.95 200.173 2070.2 200.54 2071.4C200.907 2072.6 201.457 2073.62 202.19 2074.45C202.957 2075.28 204.023 2075.7 205.39 2075.7C206.723 2075.7 207.773 2075.28 208.54 2074.45C209.307 2073.62 209.873 2072.6 210.24 2071.4C210.607 2070.2 210.823 2068.95 210.89 2067.65C210.99 2066.35 211.04 2065.23 211.04 2064.3C211.04 2063.37 210.99 2062.25 210.89 2060.95C210.823 2059.65 210.607 2058.4 210.24 2057.2C209.873 2056 209.307 2054.98 208.54 2054.15C207.773 2053.32 206.723 2052.9 205.39 2052.9C204.023 2052.9 202.957 2053.32 202.19 2054.15C201.457 2054.98 200.907 2056 200.54 2057.2C200.173 2058.4 199.94 2059.65 199.84 2060.95C199.773 2062.25 199.74 2063.37 199.74 2064.3ZM234.58 2055L227.48 2061.25L223.23 2056.35L234.78 2046.6H241.78V2082H234.58V2055ZM269.12 2053.5H251.62V2046.6H277.52V2053.2L263.37 2082H254.62L269.12 2053.5Z"
          fill="black"/>
    <path d="M163.45 1835.05L177.2 1822.7C177.9 1822.07 178.6 1821.35 179.3 1820.55C180 1819.75 180.35 1818.82 180.35 1817.75C180.35 1816.55 179.917 1815.62 179.05 1814.95C178.183 1814.25 177.167 1813.9 176 1813.9C174.6 1813.9 173.5 1814.33 172.7 1815.2C171.933 1816.07 171.5 1817.13 171.4 1818.4L163.9 1817.85C164 1816.02 164.383 1814.43 165.05 1813.1C165.717 1811.73 166.6 1810.6 167.7 1809.7C168.8 1808.8 170.083 1808.13 171.55 1807.7C173.05 1807.23 174.667 1807 176.4 1807C178 1807 179.5 1807.23 180.9 1807.7C182.3 1808.13 183.517 1808.8 184.55 1809.7C185.583 1810.57 186.383 1811.67 186.95 1813C187.55 1814.33 187.85 1815.88 187.85 1817.65C187.85 1818.78 187.733 1819.82 187.5 1820.75C187.267 1821.65 186.933 1822.48 186.5 1823.25C186.1 1823.98 185.617 1824.67 185.05 1825.3C184.483 1825.93 183.867 1826.55 183.2 1827.15L172.45 1836.4H188.15V1843H163.45V1835.05ZM192.24 1825.3C192.24 1823.2 192.423 1821.07 192.79 1818.9C193.19 1816.73 193.873 1814.77 194.84 1813C195.84 1811.23 197.19 1809.8 198.89 1808.7C200.59 1807.57 202.757 1807 205.39 1807C208.023 1807 210.19 1807.57 211.89 1808.7C213.59 1809.8 214.923 1811.23 215.89 1813C216.89 1814.77 217.573 1816.73 217.94 1818.9C218.34 1821.07 218.54 1823.2 218.54 1825.3C218.54 1827.4 218.34 1829.53 217.94 1831.7C217.573 1833.87 216.89 1835.83 215.89 1837.6C214.923 1839.37 213.59 1840.82 211.89 1841.95C210.19 1843.05 208.023 1843.6 205.39 1843.6C202.757 1843.6 200.59 1843.05 198.89 1841.95C197.19 1840.82 195.84 1839.37 194.84 1837.6C193.873 1835.83 193.19 1833.87 192.79 1831.7C192.423 1829.53 192.24 1827.4 192.24 1825.3ZM199.74 1825.3C199.74 1826.23 199.773 1827.35 199.84 1828.65C199.94 1829.95 200.173 1831.2 200.54 1832.4C200.907 1833.6 201.457 1834.62 202.19 1835.45C202.957 1836.28 204.023 1836.7 205.39 1836.7C206.723 1836.7 207.773 1836.28 208.54 1835.45C209.307 1834.62 209.873 1833.6 210.24 1832.4C210.607 1831.2 210.823 1829.95 210.89 1828.65C210.99 1827.35 211.04 1826.23 211.04 1825.3C211.04 1824.37 210.99 1823.25 210.89 1821.95C210.823 1820.65 210.607 1819.4 210.24 1818.2C209.873 1817 209.307 1815.98 208.54 1815.15C207.773 1814.32 206.723 1813.9 205.39 1813.9C204.023 1813.9 202.957 1814.32 202.19 1815.15C201.457 1815.98 200.907 1817 200.54 1818.2C200.173 1819.4 199.94 1820.65 199.84 1821.95C199.773 1823.25 199.74 1824.37 199.74 1825.3ZM234.58 1816L227.48 1822.25L223.23 1817.35L234.78 1807.6H241.78V1843H234.58V1816ZM265.02 1830.35C264.62 1830.45 264.22 1830.53 263.82 1830.6C263.42 1830.67 263.003 1830.7 262.57 1830.7C260.903 1830.7 259.386 1830.4 258.02 1829.8C256.653 1829.2 255.486 1828.38 254.52 1827.35C253.553 1826.32 252.803 1825.1 252.27 1823.7C251.736 1822.27 251.47 1820.75 251.47 1819.15C251.47 1817.32 251.803 1815.67 252.47 1814.2C253.17 1812.7 254.103 1811.42 255.27 1810.35C256.47 1809.28 257.87 1808.47 259.47 1807.9C261.07 1807.3 262.803 1807 264.67 1807C266.503 1807 268.22 1807.3 269.82 1807.9C271.453 1808.47 272.853 1809.28 274.02 1810.35C275.22 1811.42 276.153 1812.7 276.82 1814.2C277.52 1815.67 277.87 1817.32 277.87 1819.15C277.87 1820.42 277.753 1821.58 277.52 1822.65C277.286 1823.68 276.97 1824.67 276.57 1825.6C276.203 1826.53 275.753 1827.43 275.22 1828.3C274.72 1829.13 274.186 1830 273.62 1830.9L265.87 1843H256.72L265.02 1830.35ZM258.97 1819.45C258.97 1821.05 259.486 1822.38 260.52 1823.45C261.586 1824.48 262.97 1825 264.67 1825C266.37 1825 267.736 1824.48 268.77 1823.45C269.836 1822.38 270.37 1821.05 270.37 1819.45C270.37 1817.85 269.836 1816.53 268.77 1815.5C267.736 1814.43 266.37 1813.9 264.67 1813.9C262.97 1813.9 261.586 1814.43 260.52 1815.5C259.486 1816.53 258.97 1817.85 258.97 1819.45Z"
          fill="black"/>
    <path d="M163.45 1643.05L177.2 1630.7C177.9 1630.07 178.6 1629.35 179.3 1628.55C180 1627.75 180.35 1626.82 180.35 1625.75C180.35 1624.55 179.917 1623.62 179.05 1622.95C178.183 1622.25 177.167 1621.9 176 1621.9C174.6 1621.9 173.5 1622.33 172.7 1623.2C171.933 1624.07 171.5 1625.13 171.4 1626.4L163.9 1625.85C164 1624.02 164.383 1622.43 165.05 1621.1C165.717 1619.73 166.6 1618.6 167.7 1617.7C168.8 1616.8 170.083 1616.13 171.55 1615.7C173.05 1615.23 174.667 1615 176.4 1615C178 1615 179.5 1615.23 180.9 1615.7C182.3 1616.13 183.517 1616.8 184.55 1617.7C185.583 1618.57 186.383 1619.67 186.95 1621C187.55 1622.33 187.85 1623.88 187.85 1625.65C187.85 1626.78 187.733 1627.82 187.5 1628.75C187.267 1629.65 186.933 1630.48 186.5 1631.25C186.1 1631.98 185.617 1632.67 185.05 1633.3C184.483 1633.93 183.867 1634.55 183.2 1635.15L172.45 1644.4H188.15V1651H163.45V1643.05ZM192.24 1633.3C192.24 1631.2 192.423 1629.07 192.79 1626.9C193.19 1624.73 193.873 1622.77 194.84 1621C195.84 1619.23 197.19 1617.8 198.89 1616.7C200.59 1615.57 202.757 1615 205.39 1615C208.023 1615 210.19 1615.57 211.89 1616.7C213.59 1617.8 214.923 1619.23 215.89 1621C216.89 1622.77 217.573 1624.73 217.94 1626.9C218.34 1629.07 218.54 1631.2 218.54 1633.3C218.54 1635.4 218.34 1637.53 217.94 1639.7C217.573 1641.87 216.89 1643.83 215.89 1645.6C214.923 1647.37 213.59 1648.82 211.89 1649.95C210.19 1651.05 208.023 1651.6 205.39 1651.6C202.757 1651.6 200.59 1651.05 198.89 1649.95C197.19 1648.82 195.84 1647.37 194.84 1645.6C193.873 1643.83 193.19 1641.87 192.79 1639.7C192.423 1637.53 192.24 1635.4 192.24 1633.3ZM199.74 1633.3C199.74 1634.23 199.773 1635.35 199.84 1636.65C199.94 1637.95 200.173 1639.2 200.54 1640.4C200.907 1641.6 201.457 1642.62 202.19 1643.45C202.957 1644.28 204.023 1644.7 205.39 1644.7C206.723 1644.7 207.773 1644.28 208.54 1643.45C209.307 1642.62 209.873 1641.6 210.24 1640.4C210.607 1639.2 210.823 1637.95 210.89 1636.65C210.99 1635.35 211.04 1634.23 211.04 1633.3C211.04 1632.37 210.99 1631.25 210.89 1629.95C210.823 1628.65 210.607 1627.4 210.24 1626.2C209.873 1625 209.307 1623.98 208.54 1623.15C207.773 1622.32 206.723 1621.9 205.39 1621.9C204.023 1621.9 202.957 1622.32 202.19 1623.15C201.457 1623.98 200.907 1625 200.54 1626.2C200.173 1627.4 199.94 1628.65 199.84 1629.95C199.773 1631.25 199.74 1632.37 199.74 1633.3ZM222.63 1643.05L236.38 1630.7C237.08 1630.07 237.78 1629.35 238.48 1628.55C239.18 1627.75 239.53 1626.82 239.53 1625.75C239.53 1624.55 239.096 1623.62 238.23 1622.95C237.363 1622.25 236.346 1621.9 235.18 1621.9C233.78 1621.9 232.68 1622.33 231.88 1623.2C231.113 1624.07 230.68 1625.13 230.58 1626.4L223.08 1625.85C223.18 1624.02 223.563 1622.43 224.23 1621.1C224.896 1619.73 225.78 1618.6 226.88 1617.7C227.98 1616.8 229.263 1616.13 230.73 1615.7C232.23 1615.23 233.846 1615 235.58 1615C237.18 1615 238.68 1615.23 240.08 1615.7C241.48 1616.13 242.696 1616.8 243.73 1617.7C244.763 1618.57 245.563 1619.67 246.13 1621C246.73 1622.33 247.03 1623.88 247.03 1625.65C247.03 1626.78 246.913 1627.82 246.68 1628.75C246.446 1629.65 246.113 1630.48 245.68 1631.25C245.28 1631.98 244.796 1632.67 244.23 1633.3C243.663 1633.93 243.046 1634.55 242.38 1635.15L231.63 1644.4H247.33V1651H222.63V1643.05ZM251.42 1633.3C251.42 1631.2 251.603 1629.07 251.97 1626.9C252.37 1624.73 253.053 1622.77 254.02 1621C255.02 1619.23 256.37 1617.8 258.07 1616.7C259.77 1615.57 261.936 1615 264.57 1615C267.203 1615 269.37 1615.57 271.07 1616.7C272.77 1617.8 274.103 1619.23 275.07 1621C276.07 1622.77 276.753 1624.73 277.12 1626.9C277.52 1629.07 277.72 1631.2 277.72 1633.3C277.72 1635.4 277.52 1637.53 277.12 1639.7C276.753 1641.87 276.07 1643.83 275.07 1645.6C274.103 1647.37 272.77 1648.82 271.07 1649.95C269.37 1651.05 267.203 1651.6 264.57 1651.6C261.936 1651.6 259.77 1651.05 258.07 1649.95C256.37 1648.82 255.02 1647.37 254.02 1645.6C253.053 1643.83 252.37 1641.87 251.97 1639.7C251.603 1637.53 251.42 1635.4 251.42 1633.3ZM258.92 1633.3C258.92 1634.23 258.953 1635.35 259.02 1636.65C259.12 1637.95 259.353 1639.2 259.72 1640.4C260.086 1641.6 260.636 1642.62 261.37 1643.45C262.136 1644.28 263.203 1644.7 264.57 1644.7C265.903 1644.7 266.953 1644.28 267.72 1643.45C268.486 1642.62 269.053 1641.6 269.42 1640.4C269.786 1639.2 270.003 1637.95 270.07 1636.65C270.17 1635.35 270.22 1634.23 270.22 1633.3C270.22 1632.37 270.17 1631.25 270.07 1629.95C270.003 1628.65 269.786 1627.4 269.42 1626.2C269.053 1625 268.486 1623.98 267.72 1623.15C266.953 1622.32 265.903 1621.9 264.57 1621.9C263.203 1621.9 262.136 1622.32 261.37 1623.15C260.636 1623.98 260.086 1625 259.72 1626.2C259.353 1627.4 259.12 1628.65 259.02 1629.95C258.953 1631.25 258.92 1632.37 258.92 1633.3Z"
          fill="black"/>
    <path d="M163.205 1400.84L175.58 1389.73C176.21 1389.16 176.84 1388.51 177.47 1387.79C178.1 1387.07 178.415 1386.23 178.415 1385.28C178.415 1384.19 178.025 1383.35 177.245 1382.75C176.465 1382.12 175.55 1381.81 174.5 1381.81C173.24 1381.81 172.25 1382.2 171.53 1382.98C170.84 1383.76 170.45 1384.72 170.36 1385.86L163.61 1385.36C163.7 1383.71 164.045 1382.29 164.645 1381.09C165.245 1379.86 166.04 1378.84 167.03 1378.03C168.02 1377.22 169.175 1376.62 170.495 1376.23C171.845 1375.81 173.3 1375.6 174.86 1375.6C176.3 1375.6 177.65 1375.81 178.91 1376.23C180.17 1376.62 181.265 1377.22 182.195 1378.03C183.125 1378.81 183.845 1379.8 184.355 1381C184.895 1382.2 185.165 1383.59 185.165 1385.18C185.165 1386.2 185.06 1387.13 184.85 1387.97C184.64 1388.78 184.34 1389.53 183.95 1390.22C183.59 1390.88 183.155 1391.5 182.645 1392.07C182.135 1392.64 181.58 1393.19 180.98 1393.73L171.305 1402.06H185.435V1408H163.205V1400.84ZM189.116 1392.07C189.116 1390.18 189.281 1388.26 189.611 1386.31C189.971 1384.36 190.586 1382.59 191.456 1381C192.356 1379.41 193.571 1378.12 195.101 1377.13C196.631 1376.11 198.581 1375.6 200.951 1375.6C203.321 1375.6 205.271 1376.11 206.801 1377.13C208.331 1378.12 209.531 1379.41 210.401 1381C211.301 1382.59 211.916 1384.36 212.246 1386.31C212.606 1388.26 212.786 1390.18 212.786 1392.07C212.786 1393.96 212.606 1395.88 212.246 1397.83C211.916 1399.78 211.301 1401.55 210.401 1403.14C209.531 1404.73 208.331 1406.03 206.801 1407.05C205.271 1408.04 203.321 1408.54 200.951 1408.54C198.581 1408.54 196.631 1408.04 195.101 1407.05C193.571 1406.03 192.356 1404.73 191.456 1403.14C190.586 1401.55 189.971 1399.78 189.611 1397.83C189.281 1395.88 189.116 1393.96 189.116 1392.07ZM195.866 1392.07C195.866 1392.91 195.896 1393.91 195.956 1395.08C196.046 1396.25 196.256 1397.38 196.586 1398.46C196.916 1399.54 197.411 1400.45 198.071 1401.2C198.761 1401.95 199.721 1402.33 200.951 1402.33C202.151 1402.33 203.096 1401.95 203.786 1401.2C204.476 1400.45 204.986 1399.54 205.316 1398.46C205.646 1397.38 205.841 1396.25 205.901 1395.08C205.991 1393.91 206.036 1392.91 206.036 1392.07C206.036 1391.23 205.991 1390.22 205.901 1389.05C205.841 1387.88 205.646 1386.76 205.316 1385.68C204.986 1384.6 204.476 1383.68 203.786 1382.93C203.096 1382.18 202.151 1381.81 200.951 1381.81C199.721 1381.81 198.761 1382.18 198.071 1382.93C197.411 1383.68 196.916 1384.6 196.586 1385.68C196.256 1386.76 196.046 1387.88 195.956 1389.05C195.896 1390.22 195.866 1391.23 195.866 1392.07ZM216.467 1400.84L228.842 1389.73C229.472 1389.16 230.102 1388.51 230.732 1387.79C231.362 1387.07 231.677 1386.23 231.677 1385.28C231.677 1384.19 231.287 1383.35 230.507 1382.75C229.727 1382.12 228.812 1381.81 227.762 1381.81C226.502 1381.81 225.512 1382.2 224.792 1382.98C224.102 1383.76 223.712 1384.72 223.622 1385.86L216.872 1385.36C216.962 1383.71 217.307 1382.29 217.907 1381.09C218.507 1379.86 219.302 1378.84 220.292 1378.03C221.282 1377.22 222.437 1376.62 223.757 1376.23C225.107 1375.81 226.562 1375.6 228.122 1375.6C229.562 1375.6 230.912 1375.81 232.172 1376.23C233.432 1376.62 234.527 1377.22 235.457 1378.03C236.387 1378.81 237.107 1379.8 237.617 1381C238.157 1382.2 238.427 1383.59 238.427 1385.18C238.427 1386.2 238.322 1387.13 238.112 1387.97C237.902 1388.78 237.602 1389.53 237.212 1390.22C236.852 1390.88 236.417 1391.5 235.907 1392.07C235.397 1392.64 234.842 1393.19 234.242 1393.73L224.567 1402.06H238.697V1408H216.467V1400.84ZM253.853 1383.7L247.463 1389.32L243.638 1384.91L254.033 1376.14H260.333V1408H253.853V1383.7Z"
          fill="black"/>
    <defs>
        <linearGradient id="paint0_linear_217_2" x1="208.193" y1="40" x2="208.193" y2="3169.5"
                        gradientUnits="userSpaceOnUse">
            <stop stop-color="#8B7DCC"/>
            <stop offset="1" stop-color="#7A9AD6"/>
        </linearGradient>
    </defs>
</svg>
