<svg width="416" height="3210" viewBox="0 0 416 3210" fill="none" xmlns="http://www.w3.org/2000/svg">
    <path d="M279.783 1991.95H160.202M160.256 2302.86L160.202 3169.5M160.531 40L160.345 1011.58C160.345 1077.59 213.917 1131.16 279.926 1131.16M279.922 1752.88L160.34 1752.88M160.263 2302.87C160.263 2236.86 213.835 2183.29 279.844 2183.29M40.714 1872.46C40.714 1806.45 94.2858 1752.88 160.294 1752.88M160.34 1991.95C94.3318 1991.95 40.76 1938.37 40.76 1872.37M375.401 2087.61C375.401 2140.47 332.591 2183.28 279.736 2183.28M279.73 1991.95C332.585 1991.95 375.395 2034.76 375.395 2087.61M279.974 1561.55H160.393M280.113 1322.48H160.531M40.905 1442.06C40.905 1376.05 94.4769 1322.48 160.486 1322.48M160.531 1561.55C94.5228 1561.55 40.951 1507.98 40.951 1441.97M375.673 1657.21C375.673 1710.07 332.863 1752.88 280.008 1752.88M279.922 1561.55C332.776 1561.55 375.586 1604.36 375.586 1657.21M375.586 1226.82C375.586 1279.67 332.776 1322.48 279.922 1322.48M279.835 1131.15C332.689 1131.15 375.499 1173.96 375.499 1226.82" stroke="url(#paint0_linear)" stroke-width="80" stroke-linecap="round" stroke-linejoin="round"/>
    <path d="M163.45 2074.05L177.2 2061.7C177.9 2061.07 178.6 2060.35 179.3 2059.55C180 2058.75 180.35 2057.82 180.35 2056.75C180.35 2055.55 179.917 2054.62 179.05 2053.95C178.183 2053.25 177.167 2052.9 176 2052.9C174.6 2052.9 173.5 2053.33 172.7 2054.2C171.933 2055.07 171.5 2056.13 171.4 2057.4L163.9 2056.85C164 2055.02 164.383 2053.43 165.05 2052.1C165.717 2050.73 166.6 2049.6 167.7 2048.7C168.8 2047.8 170.083 2047.13 171.55 2046.7C173.05 2046.23 174.667 2046 176.4 2046C178 2046 179.5 2046.23 180.9 2046.7C182.3 2047.13 183.517 2047.8 184.55 2048.7C185.583 2049.57 186.383 2050.67 186.95 2052C187.55 2053.33 187.85 2054.88 187.85 2056.65C187.85 2057.78 187.733 2058.82 187.5 2059.75C187.267 2060.65 186.933 2061.48 186.5 2062.25C186.1 2062.98 185.617 2063.67 185.05 2064.3C184.483 2064.93 183.867 2065.55 183.2 2066.15L172.45 2075.4H188.15V2082H163.45V2074.05ZM192.24 2064.3C192.24 2062.2 192.423 2060.07 192.79 2057.9C193.19 2055.73 193.873 2053.77 194.84 2052C195.84 2050.23 197.19 2048.8 198.89 2047.7C200.59 2046.57 202.757 2046 205.39 2046C208.023 2046 210.19 2046.57 211.89 2047.7C213.59 2048.8 214.923 2050.23 215.89 2052C216.89 2053.77 217.573 2055.73 217.94 2057.9C218.34 2060.07 218.54 2062.2 218.54 2064.3C218.54 2066.4 218.34 2068.53 217.94 2070.7C217.573 2072.87 216.89 2074.83 215.89 2076.6C214.923 2078.37 213.59 2079.82 211.89 2080.95C210.19 2082.05 208.023 2082.6 205.39 2082.6C202.757 2082.6 200.59 2082.05 198.89 2080.95C197.19 2079.82 195.84 2078.37 194.84 2076.6C193.873 2074.83 193.19 2072.87 192.79 2070.7C192.423 2068.53 192.24 2066.4 192.24 2064.3ZM199.74 2064.3C199.74 2065.23 199.773 2066.35 199.84 2067.65C199.94 2068.95 200.173 2070.2 200.54 2071.4C200.907 2072.6 201.457 2073.62 202.19 2074.45C202.957 2075.28 204.023 2075.7 205.39 2075.7C206.723 2075.7 207.773 2075.28 208.54 2074.45C209.307 2073.62 209.873 2072.6 210.24 2071.4C210.607 2070.2 210.823 2068.95 210.89 2067.65C210.99 2066.35 211.04 2065.23 211.04 2064.3C211.04 2063.37 210.99 2062.25 210.89 2060.95C210.823 2059.65 210.607 2058.4 210.24 2057.2C209.873 2056 209.307 2054.98 208.54 2054.15C207.773 2053.32 206.723 2052.9 205.39 2052.9C204.023 2052.9 202.957 2053.32 202.19 2054.15C201.457 2054.98 200.907 2056 200.54 2057.2C200.173 2058.4 199.94 2059.65 199.84 2060.95C199.773 2062.25 199.74 2063.37 199.74 2064.3ZM234.58 2055L227.48 2061.25L223.23 2056.35L234.78 2046.6H241.78V2082H234.58V2055ZM269.12 2053.5H251.62V2046.6H277.52V2053.2L263.37 2082H254.62L269.12 2053.5Z" fill="black"/>
    <path d="M163.45 1835.05L177.2 1822.7C177.9 1822.07 178.6 1821.35 179.3 1820.55C180 1819.75 180.35 1818.82 180.35 1817.75C180.35 1816.55 179.917 1815.62 179.05 1814.95C178.183 1814.25 177.167 1813.9 176 1813.9C174.6 1813.9 173.5 1814.33 172.7 1815.2C171.933 1816.07 171.5 1817.13 171.4 1818.4L163.9 1817.85C164 1816.02 164.383 1814.43 165.05 1813.1C165.717 1811.73 166.6 1810.6 167.7 1809.7C168.8 1808.8 170.083 1808.13 171.55 1807.7C173.05 1807.23 174.667 1807 176.4 1807C178 1807 179.5 1807.23 180.9 1807.7C182.3 1808.13 183.517 1808.8 184.55 1809.7C185.583 1810.57 186.383 1811.67 186.95 1813C187.55 1814.33 187.85 1815.88 187.85 1817.65C187.85 1818.78 187.733 1819.82 187.5 1820.75C187.267 1821.65 186.933 1822.48 186.5 1823.25C186.1 1823.98 185.617 1824.67 185.05 1825.3C184.483 1825.93 183.867 1826.55 183.2 1827.15L172.45 1836.4H188.15V1843H163.45V1835.05ZM192.24 1825.3C192.24 1823.2 192.423 1821.07 192.79 1818.9C193.19 1816.73 193.873 1814.77 194.84 1813C195.84 1811.23 197.19 1809.8 198.89 1808.7C200.59 1807.57 202.757 1807 205.39 1807C208.023 1807 210.19 1807.57 211.89 1808.7C213.59 1809.8 214.923 1811.23 215.89 1813C216.89 1814.77 217.573 1816.73 217.94 1818.9C218.34 1821.07 218.54 1823.2 218.54 1825.3C218.54 1827.4 218.34 1829.53 217.94 1831.7C217.573 1833.87 216.89 1835.83 215.89 1837.6C214.923 1839.37 213.59 1840.82 211.89 1841.95C210.19 1843.05 208.023 1843.6 205.39 1843.6C202.757 1843.6 200.59 1843.05 198.89 1841.95C197.19 1840.82 195.84 1839.37 194.84 1837.6C193.873 1835.83 193.19 1833.87 192.79 1831.7C192.423 1829.53 192.24 1827.4 192.24 1825.3ZM199.74 1825.3C199.74 1826.23 199.773 1827.35 199.84 1828.65C199.94 1829.95 200.173 1831.2 200.54 1832.4C200.907 1833.6 201.457 1834.62 202.19 1835.45C202.957 1836.28 204.023 1836.7 205.39 1836.7C206.723 1836.7 207.773 1836.28 208.54 1835.45C209.307 1834.62 209.873 1833.6 210.24 1832.4C210.607 1831.2 210.823 1829.95 210.89 1828.65C210.99 1827.35 211.04 1826.23 211.04 1825.3C211.04 1824.37 210.99 1823.25 210.89 1821.95C210.823 1820.65 210.607 1819.4 210.24 1818.2C209.873 1817 209.307 1815.98 208.54 1815.15C207.773 1814.32 206.723 1813.9 205.39 1813.9C204.023 1813.9 202.957 1814.32 202.19 1815.15C201.457 1815.98 200.907 1817 200.54 1818.2C200.173 1819.4 199.94 1820.65 199.84 1821.95C199.773 1823.25 199.74 1824.37 199.74 1825.3ZM234.58 1816L227.48 1822.25L223.23 1817.35L234.78 1807.6H241.78V1843H234.58V1816ZM265.02 1830.35C264.62 1830.45 264.22 1830.53 263.82 1830.6C263.42 1830.67 263.003 1830.7 262.57 1830.7C260.903 1830.7 259.386 1830.4 258.02 1829.8C256.653 1829.2 255.486 1828.38 254.52 1827.35C253.553 1826.32 252.803 1825.1 252.27 1823.7C251.736 1822.27 251.47 1820.75 251.47 1819.15C251.47 1817.32 251.803 1815.67 252.47 1814.2C253.17 1812.7 254.103 1811.42 255.27 1810.35C256.47 1809.28 257.87 1808.47 259.47 1807.9C261.07 1807.3 262.803 1807 264.67 1807C266.503 1807 268.22 1807.3 269.82 1807.9C271.453 1808.47 272.853 1809.28 274.02 1810.35C275.22 1811.42 276.153 1812.7 276.82 1814.2C277.52 1815.67 277.87 1817.32 277.87 1819.15C277.87 1820.42 277.753 1821.58 277.52 1822.65C277.286 1823.68 276.97 1824.67 276.57 1825.6C276.203 1826.53 275.753 1827.43 275.22 1828.3C274.72 1829.13 274.186 1830 273.62 1830.9L265.87 1843H256.72L265.02 1830.35ZM258.97 1819.45C258.97 1821.05 259.486 1822.38 260.52 1823.45C261.586 1824.48 262.97 1825 264.67 1825C266.37 1825 267.736 1824.48 268.77 1823.45C269.836 1822.38 270.37 1821.05 270.37 1819.45C270.37 1817.85 269.836 1816.53 268.77 1815.5C267.736 1814.43 266.37 1813.9 264.67 1813.9C262.97 1813.9 261.586 1814.43 260.52 1815.5C259.486 1816.53 258.97 1817.85 258.97 1819.45Z" fill="black"/>
    <path d="M163.45 1643.05L177.2 1630.7C177.9 1630.07 178.6 1629.35 179.3 1628.55C180 1627.75 180.35 1626.82 180.35 1625.75C180.35 1624.55 179.917 1623.62 179.05 1622.95C178.183 1622.25 177.167 1621.9 176 1621.9C174.6 1621.9 173.5 1622.33 172.7 1623.2C171.933 1624.07 171.5 1625.13 171.4 1626.4L163.9 1625.85C164 1624.02 164.383 1622.43 165.05 1621.1C165.717 1619.73 166.6 1618.6 167.7 1617.7C168.8 1616.8 170.083 1616.13 171.55 1615.7C173.05 1615.23 174.667 1615 176.4 1615C178 1615 179.5 1615.23 180.9 1615.7C182.3 1616.13 183.517 1616.8 184.55 1617.7C185.583 1618.57 186.383 1619.67 186.95 1621C187.55 1622.33 187.85 1623.88 187.85 1625.65C187.85 1626.78 187.733 1627.82 187.5 1628.75C187.267 1629.65 186.933 1630.48 186.5 1631.25C186.1 1631.98 185.617 1632.67 185.05 1633.3C184.483 1633.93 183.867 1634.55 183.2 1635.15L172.45 1644.4H188.15V1651H163.45V1643.05ZM192.24 1633.3C192.24 1631.2 192.423 1629.07 192.79 1626.9C193.19 1624.73 193.873 1622.77 194.84 1621C195.84 1619.23 197.19 1617.8 198.89 1616.7C200.59 1615.57 202.757 1615 205.39 1615C208.023 1615 210.19 1615.57 211.89 1616.7C213.59 1617.8 214.923 1619.23 215.89 1621C216.89 1622.77 217.573 1624.73 217.94 1626.9C218.34 1629.07 218.54 1631.2 218.54 1633.3C218.54 1635.4 218.34 1637.53 217.94 1639.7C217.573 1641.87 216.89 1643.83 215.89 1645.6C214.923 1647.37 213.59 1648.82 211.89 1649.95C210.19 1651.05 208.023 1651.6 205.39 1651.6C202.757 1651.6 200.59 1651.05 198.89 1649.95C197.19 1648.82 195.84 1647.37 194.84 1645.6C193.873 1643.83 193.19 1641.87 192.79 1639.7C192.423 1637.53 192.24 1635.4 192.24 1633.3ZM199.74 1633.3C199.74 1634.23 199.773 1635.35 199.84 1636.65C199.94 1637.95 200.173 1639.2 200.54 1640.4C200.907 1641.6 201.457 1642.62 202.19 1643.45C202.957 1644.28 204.023 1644.7 205.39 1644.7C206.723 1644.7 207.773 1644.28 208.54 1643.45C209.307 1642.62 209.873 1641.6 210.24 1640.4C210.607 1639.2 210.823 1637.95 210.89 1636.65C210.99 1635.35 211.04 1634.23 211.04 1633.3C211.04 1632.37 210.99 1631.25 210.89 1629.95C210.823 1628.65 210.607 1627.4 210.24 1626.2C209.873 1625 209.307 1623.98 208.54 1623.15C207.773 1622.32 206.723 1621.9 205.39 1621.9C204.023 1621.9 202.957 1622.32 202.19 1623.15C201.457 1623.98 200.907 1625 200.54 1626.2C200.173 1627.4 199.94 1628.65 199.84 1629.95C199.773 1631.25 199.74 1632.37 199.74 1633.3ZM222.63 1643.05L236.38 1630.7C237.08 1630.07 237.78 1629.35 238.48 1628.55C239.18 1627.75 239.53 1626.82 239.53 1625.75C239.53 1624.55 239.096 1623.62 238.23 1622.95C237.363 1622.25 236.346 1621.9 235.18 1621.9C233.78 1621.9 232.68 1622.33 231.88 1623.2C231.113 1624.07 230.68 1625.13 230.58 1626.4L223.08 1625.85C223.18 1624.02 223.563 1622.43 224.23 1621.1C224.896 1619.73 225.78 1618.6 226.88 1617.7C227.98 1616.8 229.263 1616.13 230.73 1615.7C232.23 1615.23 233.846 1615 235.58 1615C237.18 1615 238.68 1615.23 240.08 1615.7C241.48 1616.13 242.696 1616.8 243.73 1617.7C244.763 1618.57 245.563 1619.67 246.13 1621C246.73 1622.33 247.03 1623.88 247.03 1625.65C247.03 1626.78 246.913 1627.82 246.68 1628.75C246.446 1629.65 246.113 1630.48 245.68 1631.25C245.28 1631.98 244.796 1632.67 244.23 1633.3C243.663 1633.93 243.046 1634.55 242.38 1635.15L231.63 1644.4H247.33V1651H222.63V1643.05ZM251.42 1633.3C251.42 1631.2 251.603 1629.07 251.97 1626.9C252.37 1624.73 253.053 1622.77 254.02 1621C255.02 1619.23 256.37 1617.8 258.07 1616.7C259.77 1615.57 261.936 1615 264.57 1615C267.203 1615 269.37 1615.57 271.07 1616.7C272.77 1617.8 274.103 1619.23 275.07 1621C276.07 1622.77 276.753 1624.73 277.12 1626.9C277.52 1629.07 277.72 1631.2 277.72 1633.3C277.72 1635.4 277.52 1637.53 277.12 1639.7C276.753 1641.87 276.07 1643.83 275.07 1645.6C274.103 1647.37 272.77 1648.82 271.07 1649.95C269.37 1651.05 267.203 1651.6 264.57 1651.6C261.936 1651.6 259.77 1651.05 258.07 1649.95C256.37 1648.82 255.02 1647.37 254.02 1645.6C253.053 1643.83 252.37 1641.87 251.97 1639.7C251.603 1637.53 251.42 1635.4 251.42 1633.3ZM258.92 1633.3C258.92 1634.23 258.953 1635.35 259.02 1636.65C259.12 1637.95 259.353 1639.2 259.72 1640.4C260.086 1641.6 260.636 1642.62 261.37 1643.45C262.136 1644.28 263.203 1644.7 264.57 1644.7C265.903 1644.7 266.953 1644.28 267.72 1643.45C268.486 1642.62 269.053 1641.6 269.42 1640.4C269.786 1639.2 270.003 1637.95 270.07 1636.65C270.17 1635.35 270.22 1634.23 270.22 1633.3C270.22 1632.37 270.17 1631.25 270.07 1629.95C270.003 1628.65 269.786 1627.4 269.42 1626.2C269.053 1625 268.486 1623.98 267.72 1623.15C266.953 1622.32 265.903 1621.9 264.57 1621.9C263.203 1621.9 262.136 1622.32 261.37 1623.15C260.636 1623.98 260.086 1625 259.72 1626.2C259.353 1627.4 259.12 1628.65 259.02 1629.95C258.953 1631.25 258.92 1632.37 258.92 1633.3Z" fill="black"/>
    <path d="M137.51 1376.14H158.885V1382.62H144.53V1389.1H157.805V1395.58H144.53V1408H137.51V1376.14ZM190.78 1395.71C190.78 1397.6 190.495 1399.34 189.925 1400.93C189.355 1402.52 188.5 1403.9 187.36 1405.07C186.25 1406.24 184.855 1407.16 183.175 1407.82C181.495 1408.48 179.56 1408.81 177.37 1408.81C175.15 1408.81 173.2 1408.48 171.52 1407.82C169.84 1407.16 168.43 1406.24 167.29 1405.07C166.18 1403.9 165.34 1402.52 164.77 1400.93C164.2 1399.34 163.915 1397.6 163.915 1395.71V1376.14H170.935V1395.44C170.935 1396.43 171.085 1397.35 171.385 1398.19C171.715 1399.03 172.165 1399.76 172.735 1400.39C173.305 1400.99 173.98 1401.47 174.76 1401.83C175.57 1402.16 176.44 1402.33 177.37 1402.33C178.3 1402.33 179.155 1402.16 179.935 1401.83C180.715 1401.47 181.39 1400.99 181.96 1400.39C182.53 1399.76 182.965 1399.03 183.265 1398.19C183.595 1397.35 183.76 1396.43 183.76 1395.44V1376.14H190.78V1395.71ZM203.434 1382.35H194.344V1376.14H219.544V1382.35H210.454V1408H203.434V1382.35ZM249.974 1395.71C249.974 1397.6 249.689 1399.34 249.119 1400.93C248.549 1402.52 247.694 1403.9 246.554 1405.07C245.444 1406.24 244.049 1407.16 242.369 1407.82C240.689 1408.48 238.754 1408.81 236.564 1408.81C234.344 1408.81 232.394 1408.48 230.714 1407.82C229.034 1407.16 227.624 1406.24 226.484 1405.07C225.374 1403.9 224.534 1402.52 223.964 1400.93C223.394 1399.34 223.109 1397.6 223.109 1395.71V1376.14H230.129V1395.44C230.129 1396.43 230.279 1397.35 230.579 1398.19C230.909 1399.03 231.359 1399.76 231.929 1400.39C232.499 1400.99 233.174 1401.47 233.954 1401.83C234.764 1402.16 235.634 1402.33 236.564 1402.33C237.494 1402.33 238.349 1402.16 239.129 1401.83C239.909 1401.47 240.584 1400.99 241.154 1400.39C241.724 1399.76 242.159 1399.03 242.459 1398.19C242.789 1397.35 242.954 1396.43 242.954 1395.44V1376.14H249.974V1395.71ZM256.464 1376.14H268.794C270.414 1376.14 271.944 1376.3 273.384 1376.63C274.854 1376.93 276.129 1377.46 277.209 1378.21C278.319 1378.93 279.189 1379.92 279.819 1381.18C280.479 1382.41 280.809 1383.95 280.809 1385.81C280.809 1388.06 280.224 1389.98 279.054 1391.57C277.884 1393.13 276.174 1394.12 273.924 1394.54L282.024 1408H273.609L266.949 1395.26H263.484V1408H256.464V1376.14ZM263.484 1389.32H267.624C268.254 1389.32 268.914 1389.31 269.604 1389.28C270.324 1389.22 270.969 1389.08 271.539 1388.87C272.109 1388.63 272.574 1388.27 272.934 1387.79C273.324 1387.31 273.519 1386.64 273.519 1385.77C273.519 1384.96 273.354 1384.31 273.024 1383.83C272.694 1383.35 272.274 1382.99 271.764 1382.75C271.254 1382.48 270.669 1382.3 270.009 1382.21C269.349 1382.12 268.704 1382.08 268.074 1382.08H263.484V1389.32Z" fill="black"/>
    <defs>
        <linearGradient id="paint0_linear" x1="208.193" y1="40" x2="208.193" y2="3169.5" gradientUnits="userSpaceOnUse">
            <stop stop-color="#8B7DCC"/>
            <stop offset="1" stop-color="#7A9AD6"/>
        </linearGradient>
    </defs>
</svg>
