<?xml version="1.0" encoding="utf-8" ?>	<!-- Generator: Assembly 2.2 - http://assemblyapp.co -->	<svg version="1.1" xmlns="http://www.w3.org/2000/svg" xmlns:xlink="http://www.w3.org/1999/xlink" width="2048.00" height="2048.00" viewBox="0 0 2048.0 2048.0">		<g id="document" transform="matrix(1,0,0,1,1024.0,1024.0)">			<path d="M-531.043,-128.748 C-523.397,-217.273 -505.918,-294.312 -478.604,-359.865 C-440.673,-450.899 -388.632,-517.202 -322.48,-558.775 C-256.329,-600.347 -182.288,-621.133 -100.357,-621.133 C-2.64657,-621.133 81.105,-593.52 150.898,-538.292 C220.691,-483.065 274.401,-392.637 312.029,-267.01 L340.249,-267.01 L312.029,-686.678 L280.167,-686.678 C273.491,-657.547 262.263,-634.788 246.484,-618.402 C234.346,-606.871 220.084,-601.106 203.698,-601.106 C192.774,-601.106 174.567,-607.782 149.077,-621.133 C62.2912,-664.83 -25.7086,-686.678 -114.922,-686.678 C-229.625,-686.678 -335.377,-658.306 -432.177,-601.561 C-528.977,-544.816 -604.99,-464.858 -660.218,-361.686 C-699.743,-287.847 -725.125,-208.879 -736.363,-124.781 L-531.043,-128.748 L-531.043,-128.748 Z " fill="#FFFFFF" fill-opacity="1.00" />			<path d="M662.951,-951.804 C653.116,-908.889 636.576,-875.363 613.331,-851.223 C595.45,-834.236 574.44,-825.743 550.301,-825.743 C534.208,-825.743 507.387,-835.577 469.837,-855.246 C341.988,-919.618 212.351,-951.804 80.926,-951.804 C-88.0489,-951.804 -243.837,-910.007 -386.437,-826.413 C-529.038,-742.82 -641.017,-625.029 -722.375,-473.041 C-803.734,-321.053 -844.413,-154.313 -844.413,27.1782 C-844.413,252.478 -782.724,448.274 -659.345,614.567 C-493.946,838.079 -260.6,949.835 40.6939,949.835 C207.881,949.835 352.269,912.285 473.86,837.185 C595.45,762.085 701.842,643.624 793.035,481.801 L751.461,454.98 C643.282,605.18 544.042,705.536 453.744,756.05 C363.445,806.564 259.288,831.821 141.274,831.821 C5.37903,831.821 -115.541,799.635 -221.485,735.264 C-327.43,670.892 -406.777,578.358 -459.526,457.662 C-512.274,336.966 -538.649,194.365 -538.649,29.8603 C-538.649,-169.512 -510.71,-336.252 -454.832,-470.359 C-398.954,-604.466 -322.289,-702.141 -224.838,-763.383 C-127.387,-824.625 -18.3132,-855.246 102.383,-855.246 C246.325,-855.246 369.703,-814.567 472.519,-733.209 C575.334,-651.851 654.457,-518.638 709.888,-333.57 L751.461,-333.57 L709.888,-951.804 L662.951,-951.804 Z " fill="#FFFFFF" fill-opacity="1.00" />			<path d="M287.96,330.382 L389.505,330.382 L529.753,-87.2611 L529.753,-120.646 L-108.951,-120.646 L-223.162,161.368 L-197.684,171.032 C-167.813,114.805 -128.279,73.2202 -79.08,46.2781 C-50.9665,30.4643 -3.81777,22.5573 62.3661,22.5573 L390.064,22.5573 L287.96,330.382 L287.96,330.382 Z " fill="#FFFFFF" fill-opacity="1.00" />			<path d="M-292.53,685.442 C-249.093,901.589 -429.237,824.372 -276.377,900.367 C250.143,1063.01 375.978,368.447 435.822,191.604 C495.665,14.7618 407.82,-35.4306 298.224,300.645 C188.627,636.721 -89.4702,863.95 -292.53,685.442 Z " fill="#FFFFFF" fill-opacity="1.00" />		</g>	</svg>
