<svg width="1164" height="1381" viewBox="0 0 1164 1381" fill="none" xmlns="http://www.w3.org/2000/svg">
<path d="M276.558 698.758C220.739 629.538 188.029 541.049 189.872 445.188C194.038 228.631 372.968 56.4532 589.525 60.6182C806.082 64.7832 978.26 243.714 974.095 460.271C972.352 550.875 940.017 633.712 887.134 699.115C871.47 696.946 855.185 697.275 838.786 700.444C758.652 715.929 706.317 793.335 721.802 873.47C737.288 953.604 814.694 1005.94 894.828 990.453C896.716 990.088 898.589 989.689 900.446 989.256L990.632 1143.37C1016.62 1187.79 1073.46 1202.66 1117.88 1176.67C1162.3 1150.68 1177.17 1093.84 1151.18 1049.42L1050.62 877.589L1050.66 877.567L1019.31 824.131L1019.27 824.158C1010.38 810.11 991.918 805.535 977.456 813.992C962.676 822.635 957.708 841.597 966.351 856.377L966.393 856.352L988.123 893.398L988.055 893.438L1097.66 1080.74C1106.27 1095.46 1101.28 1114.54 1086.56 1123.16C1071.85 1131.77 1052.76 1126.77 1044.15 1112.06L934.54 924.754L934.457 924.803C928.282 913.053 921.792 902.261 916.23 891.382C904.79 869.006 897.276 846.26 904.498 814.039C906.201 806.439 908.723 798.313 912.208 789.541C923.077 762.175 935.722 739.663 948.359 722.287C948.315 722.257 948.27 722.227 948.225 722.198C1005.54 645.4 1037.5 551.763 1037.57 453.063C1037.77 203.111 834.536 0.608149 583.22 0.00514861V0.000143729C331.556 -0.196856 127.596 202.143 127.4 452.346C127.322 551.046 159.133 644.733 216.328 721.62C216.283 721.65 216.238 721.679 216.193 721.709C228.803 739.105 241.414 761.637 252.24 789.02C255.71 797.798 258.22 805.928 259.911 813.529C267.082 845.762 259.532 868.497 248.058 890.854C242.479 901.725 235.972 912.506 229.779 924.247L229.695 924.197L119.796 1111.33C111.161 1126.03 92.0656 1131 77.3626 1122.36C62.6596 1113.73 57.6946 1094.63 66.3296 1079.93L176.229 892.798L176.162 892.758L197.949 855.746L197.992 855.771C206.658 841.004 201.72 822.035 186.953 813.369C172.504 804.889 154.031 809.435 145.124 823.469L145.078 823.442L113.65 876.829L113.688 876.851L12.8636 1048.53C-13.1984 1092.91 1.58558 1149.77 45.9626 1175.83C90.3396 1201.89 147.2 1187.11 173.262 1142.73L263.689 988.753C265.545 989.189 267.417 989.591 269.304 989.959C349.414 1005.57 426.903 953.356 442.513 873.246C458.124 793.137 405.911 715.648 325.801 700.038C309.093 696.782 292.5 696.476 276.558 698.758V698.758ZM582.368 1088.93C629.493 1089.38 671.075 1112.8 696.467 1148.54L805.419 1334.73C831.411 1379.14 888.248 1394.02 932.666 1368.03C977.083 1342.03 991.956 1285.2 965.964 1240.78L856.357 1053.48L856.304 1053.51C847.598 1038.91 828.76 1034.04 814.059 1042.64C799.279 1051.28 794.311 1070.24 802.954 1085.02L802.971 1085.01L912.449 1272.1C921.061 1286.81 916.066 1305.9 901.349 1314.51C886.633 1323.12 867.546 1318.13 858.934 1303.41L754.692 1125.28C753.23 1122.64 751.711 1120.05 750.135 1117.49L749.327 1116.11L749.29 1116.13C714.433 1060.56 652.807 1023.52 582.419 1023.03V1023.03C511.715 1023.14 449.715 1060.15 414.645 1115.86L414.608 1115.84L413.799 1117.22C412.219 1119.78 410.695 1122.37 409.23 1125L304.709 1302.97C296.074 1317.68 276.979 1322.64 262.276 1314.01C247.573 1305.37 242.608 1286.28 251.243 1271.57L361.014 1084.66L361.031 1084.67C369.697 1069.91 364.759 1050.94 349.992 1042.27C335.305 1033.65 316.458 1038.49 307.73 1053.07L307.677 1053.04L197.777 1240.17C171.715 1284.55 186.499 1341.41 230.876 1367.47C275.253 1393.53 332.113 1378.75 358.175 1334.37L467.418 1148.36C492.865 1112.66 534.484 1089.3 581.61 1088.93L581.61 1089.04C581.773 1089.04 581.936 1089.04 582.099 1089.04V1089.03C582.188 1089.03 582.278 1089.03 582.367 1089.03L582.368 1088.93Z" fill="url(#paint0_linear)"/>
<defs>
<linearGradient id="paint0_linear" x1="581.983" y1="0" x2="581.983" y2="1380.82" gradientUnits="userSpaceOnUse">
<stop offset="0.354167" stop-color="#7A9AD6"/>
<stop offset="0.755208" stop-color="#8B7DCC"/>
</linearGradient>
</defs>
</svg>
